<svg width="18" height="18" viewBox="0 0 18 18" fill="none" xmlns="http://www.w3.org/2000/svg">
<path fill-rule="evenodd" clip-rule="evenodd" d="M15.4004 1.75699C14.5577 0.914339 13.1915 0.914336 12.3489 1.75699L2.16607 11.9398C1.86485 12.241 1.65952 12.6247 1.57598 13.0423L1.15373 15.1536C0.952426 16.1601 1.83986 17.0476 2.8464 16.8463L4.95764 16.424C5.37535 16.3405 5.759 16.1351 6.06022 15.8339L16.243 5.65113C17.0857 4.80849 17.0857 3.44229 16.243 2.59963L15.4004 1.75699ZM13.366 2.77415C13.6469 2.49327 14.1023 2.49327 14.3832 2.77415L15.2258 3.6168C15.5068 3.89768 15.5068 4.35308 15.2258 4.63397L13.3043 6.5555L11.4445 4.69568L13.366 2.77415ZM10.4273 5.71285L3.18323 12.9569C3.08283 13.0574 3.01439 13.1852 2.98654 13.3245L2.56429 15.4357L4.67553 15.0134C4.81477 14.9856 4.94265 14.9172 5.04306 14.8168L12.2871 7.57266L10.4273 5.71285Z" fill="currentColor"/>
</svg>
