<svg width="22" height="22" viewBox="0 0 22 22" fill="none" xmlns="http://www.w3.org/2000/svg">
<g id="Iconly/Bold/Login">
<g id="Login">
<path id="Login_2" fill-rule="evenodd" clip-rule="evenodd" d="M10.8957 1.83325H15.515C17.8247 1.83325 19.7084 3.66659 19.7084 5.90325V16.0966C19.7084 18.3424 17.8247 20.1666 15.4961 20.1666H10.8862C8.57652 20.1666 6.68334 18.3424 6.68334 16.1058V11.7058H12.5522L11.0377 13.1724C10.7537 13.4474 10.7537 13.8966 11.0377 14.1716C11.1796 14.3091 11.369 14.3733 11.5583 14.3733C11.7381 14.3733 11.9274 14.3091 12.0694 14.1716L14.8335 11.5041C14.9755 11.3758 15.0512 11.1924 15.0512 10.9999C15.0512 10.8166 14.9755 10.6333 14.8335 10.5049L12.0694 7.83742C11.7855 7.56242 11.3216 7.56242 11.0377 7.83742C10.7537 8.11242 10.7537 8.56159 11.0377 8.83659L12.5522 10.2941H6.68334V5.91242C6.68334 3.66659 8.57652 1.83325 10.8957 1.83325ZM2.29175 10.9998C2.29175 10.6148 2.61737 10.294 3.00813 10.294H6.68306V11.7057H3.00813C2.61737 11.7057 2.29175 11.394 2.29175 10.9998Z" fill="white"/>
</g>
</g>
</svg>
