<svg width="18" height="18" viewBox="0 0 18 18" fill="none" xmlns="http://www.w3.org/2000/svg">
<g clip-path="url(#clip0_2486_5110)">
<path d="M9 5.49219V8.99988L11.1923 11.1922" stroke="currentColor" stroke-linecap="round" stroke-linejoin="round"/>
<path d="M2.28084 4.50187L1.62315 4.50518C1.62496 4.86582 1.91688 5.15774 2.27753 5.15955L2.28084 4.50187ZM4.50978 5.17077C4.87301 5.17259 5.16895 4.87962 5.17077 4.51639C5.17259 4.15316 4.87962 3.85723 4.51639 3.8554L4.50978 5.17077ZM2.9273 2.26631C2.92547 1.90308 2.62954 1.6101 2.26631 1.61193C1.90308 1.61376 1.6101 1.9097 1.61194 2.27292L2.9273 2.26631ZM1.76534 8.99995C1.76534 8.63673 1.47087 8.34226 1.10764 8.34226C0.744413 8.34226 0.449951 8.63673 0.449951 8.99995H1.76534ZM13.2754 16.4057C13.5899 16.2239 13.6973 15.8215 13.5154 15.5071C13.3335 15.1927 12.9312 15.0852 12.6168 15.2671L13.2754 16.4057ZM15.2671 12.6168C15.0852 12.9312 15.1927 13.3335 15.5071 13.5154C15.8215 13.6973 16.2239 13.5899 16.4057 13.2754L15.2671 12.6168ZM2.98455 2.92398C2.72643 3.17954 2.72435 3.59596 2.97992 3.85409C3.23548 4.11221 3.6519 4.11428 3.91002 3.85872L2.98455 2.92398ZM15.0177 2.98238C11.6676 -0.367639 6.25415 -0.401558 2.92629 2.92629L3.85641 3.85641C6.66178 1.05104 11.2424 1.06734 14.0876 3.9125L15.0177 2.98238ZM2.92629 2.92629L1.81578 4.03681L2.74589 4.96693L3.85641 3.85641L2.92629 2.92629ZM2.27753 5.15955L4.50978 5.17077L4.51639 3.8554L2.28414 3.84419L2.27753 5.15955ZM2.93852 4.49856L2.9273 2.26631L1.61194 2.27292L1.62315 4.50518L2.93852 4.49856ZM8.99995 1.76534C12.9955 1.76534 16.2346 5.00438 16.2346 8.99995H17.5499C17.5499 4.27791 13.722 0.449951 8.99995 0.449951V1.76534ZM8.99995 16.2346C5.00438 16.2346 1.76534 12.9955 1.76534 8.99995H0.449951C0.449951 13.722 4.27791 17.5499 8.99995 17.5499V16.2346ZM12.6168 15.2671C11.5534 15.8823 10.3188 16.2346 8.99995 16.2346V17.5499C10.5562 17.5499 12.0172 17.1336 13.2754 16.4057L12.6168 15.2671ZM16.2346 8.99995C16.2346 10.3188 15.8823 11.5534 15.2671 12.6168L16.4057 13.2754C17.1336 12.0172 17.5499 10.5562 17.5499 8.99995H16.2346ZM3.91002 3.85872C5.21784 2.56385 7.015 1.76534 8.99995 1.76534V0.449951C6.65455 0.449951 4.52863 1.3952 2.98455 2.92398L3.91002 3.85872Z" fill="currentColor"/>
</g>
<defs>
<clipPath id="clip0_2486_5110">
<rect width="18" height="18" fill="white"/>
</clipPath>
</defs>
</svg>
